<svg width="64" height="36" viewBox="0 0 64 36" fill="none" xmlns="http://www.w3.org/2000/svg">
<mask id="mask0_6_432" style="mask-type:luminance" maskUnits="userSpaceOnUse" x="0" y="0" width="35" height="36">
<path d="M17.3844 0C7.78344 0 0 7.86338 0 17.5629C0 27.2624 7.78344 35.1258 17.3844 35.1258C26.9853 35.1258 34.7687 27.2624 34.7687 17.5629C34.7687 7.86338 26.989 0 17.3844 0ZM27.255 17.1934C26.8154 18.4026 26.1578 19.4886 25.4042 20.5187C24.4179 21.8622 23.2838 23.0676 22.0795 24.2096C20.6278 25.5905 19.0799 26.8519 17.4841 28.0574L17.4435 28.0872L17.425 28.0984L17.3881 28.0686C16.9226 27.6879 16.4608 27.311 15.9991 26.9303C14.6286 25.7958 13.2839 24.6239 12.0169 23.3699C10.8754 22.2354 9.79671 21.0412 8.89166 19.7014C8.31538 18.8467 7.83146 17.9473 7.50638 16.9621C7.24041 16.1522 7.10003 15.3162 7.15913 14.4616C7.27735 12.9053 7.82776 11.5469 9.01726 10.5057C9.77455 9.84508 10.6648 9.47561 11.6511 9.32633C12.1129 9.25542 12.5821 9.23676 13.0475 9.26662C14.7209 9.38231 16.0434 10.1324 16.9965 11.532C17.1369 11.7372 17.2588 11.9537 17.3881 12.1664L17.4324 12.241C17.4324 12.241 17.4361 12.2298 17.4398 12.2261C17.51 12.0992 17.5802 11.9686 17.6577 11.8417C18.186 10.9572 18.8694 10.2369 19.7892 9.75924C20.6536 9.3114 21.5735 9.16585 22.5339 9.25169C23.3725 9.32633 24.1778 9.52786 24.9277 9.91972C26.4201 10.6997 27.3104 11.9387 27.6318 13.5958C27.8682 14.8311 27.6798 16.0253 27.255 17.1897V17.1934Z" fill="white"/>
</mask>
<g mask="url(#mask0_6_432)">
<path d="M27.8681 9.16959H27.0813V28.1021H27.8681V9.16959Z" fill="#B40F54"/>
<path d="M27.0814 9.16959H26.1431V28.1021H27.0814V9.16959Z" fill="#B30F54"/>
<path d="M26.143 9.16959H25.2047V28.1021H26.143V9.16959Z" fill="#B20F54"/>
<path d="M25.2048 9.16959H24.2665V28.1021H25.2048V9.16959Z" fill="#B10F54"/>
<path d="M24.2664 9.16959H23.3281V28.1021H24.2664V9.16959Z" fill="#B00F54"/>
<path d="M23.3282 9.16959H22.3899V28.1021H23.3282V9.16959Z" fill="#AF0F53"/>
<path d="M22.3898 9.16959H21.4515V28.1021H22.3898V9.16959Z" fill="#AE1053"/>
<path d="M21.4479 9.16959H20.5096V28.1021H21.4479V9.16959Z" fill="#AD1053"/>
<path d="M20.5096 9.16959H19.5713V28.1021H20.5096V9.16959Z" fill="#AC1053"/>
<path d="M19.5714 9.16959H18.6331V28.1021H19.5714V9.16959Z" fill="#AB1053"/>
<path d="M18.633 9.16959H17.6947V28.1021H18.633V9.16959Z" fill="#AA1053"/>
<path d="M17.6948 9.16959H16.7565V28.1021H17.6948V9.16959Z" fill="#A91052"/>
<path d="M16.7564 9.16959H15.8181V28.1021H16.7564V9.16959Z" fill="#A81052"/>
<path d="M15.8182 9.16959H14.8799V28.1021H15.8182V9.16959Z" fill="#A71052"/>
<path d="M14.8798 9.16959H13.9415V28.1021H14.8798V9.16959Z" fill="#A61152"/>
<path d="M13.9416 9.16959H13.0033V28.1021H13.9416V9.16959Z" fill="#A51152"/>
<path d="M13.0031 9.16959H12.0648V28.1021H13.0031V9.16959Z" fill="#A41152"/>
<path d="M12.0649 9.16959H11.1266V28.1021H12.0649V9.16959Z" fill="#A31151"/>
<path d="M11.1265 9.16959H10.1882V28.1021H11.1265V9.16959Z" fill="#A21151"/>
<path d="M10.1845 9.16959H9.24622V28.1021H10.1845V9.16959Z" fill="#A11151"/>
<path d="M9.24628 9.16959H8.30798V28.1021H9.24628V9.16959Z" fill="#A01151"/>
<path d="M8.30793 9.16959H7.36963V28.1021H8.30793V9.16959Z" fill="#9F1151"/>
<path d="M7.37334 9.16959H7.09998V28.1021H7.37334V9.16959Z" fill="#9E1251"/>
<path d="M34.7724 0H34.5914V35.1296H34.7724V0Z" fill="#BD0E56"/>
<path d="M34.5915 0H33.6532V35.1296H34.5915V0Z" fill="#BC0E56"/>
<path d="M33.6531 0H32.7148V35.1296H33.6531V0Z" fill="#BA0E55"/>
<path d="M32.7111 0H31.7728V35.1296H32.7111V0Z" fill="#B90E55"/>
<path d="M31.7728 0H30.8345V35.1296H31.7728V0Z" fill="#B80E55"/>
<path d="M30.8345 0H29.8962V35.1296H30.8345V0Z" fill="#B70E55"/>
<path d="M29.8962 0H28.9579V35.1296H29.8962V0Z" fill="#B60F55"/>
<path d="M28.9579 0H28.0197V35.1296H28.9579V0Z" fill="#B50F55"/>
<path d="M28.0196 0H27.0813V35.1296H28.0196V0Z" fill="#B40F54"/>
<path d="M27.0814 0H26.1431V35.1296H27.0814V0Z" fill="#B30F54"/>
<path d="M26.143 0H25.2047V35.1296H26.143V0Z" fill="#B20F54"/>
<path d="M25.2048 0H24.2665V35.1296H25.2048V0Z" fill="#B10F54"/>
<path d="M24.2664 0H23.3281V35.1296H24.2664V0Z" fill="#B00F54"/>
<path d="M23.3282 0H22.3899V35.1296H23.3282V0Z" fill="#AF0F53"/>
<path d="M22.3898 0H21.4515V35.1296H22.3898V0Z" fill="#AE1053"/>
<path d="M21.4479 0H20.5096V35.1296H21.4479V0Z" fill="#AD1053"/>
<path d="M20.5096 0H19.5713V35.1296H20.5096V0Z" fill="#AC1053"/>
<path d="M19.5714 0H18.6331V35.1296H19.5714V0Z" fill="#AB1053"/>
<path d="M18.633 0H17.6947V35.1296H18.633V0Z" fill="#AA1053"/>
<path d="M17.6948 0H16.7565V35.1296H17.6948V0Z" fill="#A91052"/>
<path d="M16.7564 0H15.8181V35.1296H16.7564V0Z" fill="#A81052"/>
<path d="M15.8182 0H14.8799V35.1296H15.8182V0Z" fill="#A71052"/>
<path d="M14.8798 0H13.9415V35.1296H14.8798V0Z" fill="#A61152"/>
<path d="M13.9416 0H13.0033V35.1296H13.9416V0Z" fill="#A51152"/>
<path d="M13.0031 0H12.0648V35.1296H13.0031V0Z" fill="#A41152"/>
<path d="M12.0649 0H11.1266V35.1296H12.0649V0Z" fill="#A31151"/>
<path d="M11.1265 0H10.1882V35.1296H11.1265V0Z" fill="#A21151"/>
<path d="M10.1845 0H9.24622V35.1296H10.1845V0Z" fill="#A11151"/>
<path d="M9.24628 0H8.30798V35.1296H9.24628V0Z" fill="#A01151"/>
<path d="M8.30793 0H7.36963V35.1296H8.30793V0Z" fill="#9F1151"/>
<path d="M7.36969 0H6.4314V35.1296H7.36969V0Z" fill="#9E1251"/>
<path d="M6.43134 0H5.49304V35.1296H6.43134V0Z" fill="#9D1250"/>
<path d="M5.49311 0H4.55481V35.1296H5.49311V0Z" fill="#9C1250"/>
<path d="M4.55475 0H3.61646V35.1296H4.55475V0Z" fill="#9B1250"/>
<path d="M3.61651 0H0V35.1296H3.61651V0Z" fill="#9B1250"/>
</g>
<mask id="mask1_6_432" style="mask-type:luminance" maskUnits="userSpaceOnUse" x="29" y="0" width="35" height="36">
<path d="M46.6157 0C37.0148 0 29.2313 7.86338 29.2313 17.5629C29.2313 27.2624 37.0148 35.1258 46.6157 35.1258C56.2166 35.1258 64 27.2624 64 17.5629C64 7.86338 56.2166 0 46.6157 0ZM56.4826 17.1934C56.043 18.4026 55.3854 19.4886 54.6318 20.5187C53.6455 21.8622 52.5114 23.0676 51.3072 24.2096C49.8554 25.5905 48.3076 26.8519 46.7117 28.0574L46.6711 28.0872L46.6526 28.0984L46.6157 28.0686C46.1502 27.6879 45.6885 27.311 45.2267 26.9303C43.8562 25.7958 42.5116 24.6239 41.2445 23.3699C40.103 22.2354 39.0243 21.0412 38.1193 19.7014C37.543 18.8467 37.0591 17.9473 36.734 16.9621C36.468 16.1522 36.3277 15.3162 36.3868 14.4616C36.505 12.9053 37.0554 11.5469 38.2449 10.5057C39.0022 9.84508 39.8925 9.47561 40.8788 9.32633C41.3405 9.25542 41.8097 9.23676 42.2751 9.26662C43.9486 9.38231 45.271 10.1324 46.2241 11.532C46.3645 11.7372 46.4864 11.9537 46.6157 12.1664L46.66 12.241C46.66 12.241 46.6637 12.2298 46.6674 12.2261C46.7376 12.0992 46.8078 11.9686 46.8854 11.8417C47.4136 10.9572 48.097 10.2369 49.0168 9.75924C49.8813 9.3114 50.8011 9.16585 51.7615 9.25169C52.6001 9.32633 53.4054 9.52786 54.1553 9.91972C55.6477 10.6997 56.538 11.9387 56.8594 13.5958C57.0958 14.8311 56.9074 16.0253 56.4826 17.1897V17.1934Z" fill="white"/>
</mask>
<g mask="url(#mask1_6_432)">
<path d="M57.0958 9.16959H56.1797V28.1021H57.0958V9.16959Z" fill="#D40B5A"/>
<path d="M56.1796 9.16959H55.2413V28.1021H56.1796V9.16959Z" fill="#D30B5A"/>
<path d="M55.2377 9.16959H54.2994V28.1021H55.2377V9.16959Z" fill="#D20B59"/>
<path d="M54.2994 9.16959H53.3611V28.1021H54.2994V9.16959Z" fill="#D10B59"/>
<path d="M53.3611 9.16959H52.4229V28.1021H53.3611V9.16959Z" fill="#D00B59"/>
<path d="M52.4228 9.16959H51.4845V28.1021H52.4228V9.16959Z" fill="#CF0C59"/>
<path d="M51.4846 9.16959H50.5463V28.1021H51.4846V9.16959Z" fill="#CE0C59"/>
<path d="M50.5461 9.16959H49.6078V28.1021H50.5461V9.16959Z" fill="#CD0C59"/>
<path d="M49.6079 9.16959H48.6696V28.1021H49.6079V9.16959Z" fill="#CC0C58"/>
<path d="M48.6695 9.16959H47.7312V28.1021H48.6695V9.16959Z" fill="#CB0C58"/>
<path d="M47.7313 9.16959H46.793V28.1021H47.7313V9.16959Z" fill="#CA0C58"/>
<path d="M46.7929 9.16959H45.8546V28.1021H46.7929V9.16959Z" fill="#C90C58"/>
<path d="M45.8547 9.16959H44.9164V28.1021H45.8547V9.16959Z" fill="#C80C58"/>
<path d="M44.9163 9.16959H43.978V28.1021H44.9163V9.16959Z" fill="#C70D58"/>
<path d="M43.9744 9.16959H43.0361V28.1021H43.9744V9.16959Z" fill="#C60D57"/>
<path d="M43.0361 9.16959H42.0978V28.1021H43.0361V9.16959Z" fill="#C50D57"/>
<path d="M42.0978 9.16959H41.1595V28.1021H42.0978V9.16959Z" fill="#C40D57"/>
<path d="M41.1595 9.16959H40.2212V28.1021H41.1595V9.16959Z" fill="#C30D57"/>
<path d="M40.2213 9.16959H39.283V28.1021H40.2213V9.16959Z" fill="#C20D57"/>
<path d="M39.2829 9.16959H38.3446V28.1021H39.2829V9.16959Z" fill="#C10D56"/>
<path d="M38.3447 9.16959H37.4064V28.1021H38.3447V9.16959Z" fill="#C00D56"/>
<path d="M37.4063 9.16959H36.468V28.1021H37.4063V9.16959Z" fill="#BF0E56"/>
<path d="M36.4679 9.16959H36.3275V28.1021H36.4679V9.16959Z" fill="#BE0E56"/>
<path d="M64 0H63.686V35.1296H64V0Z" fill="#DB0A5B"/>
<path d="M63.686 0H62.7477V35.1296H63.686V0Z" fill="#DB0A5B"/>
<path d="M62.7477 0H61.8094V35.1296H62.7477V0Z" fill="#DA0A5B"/>
<path d="M61.8094 0H60.8711V35.1296H61.8094V0Z" fill="#D90A5B"/>
<path d="M60.8712 0H59.9329V35.1296H60.8712V0Z" fill="#D80A5A"/>
<path d="M59.9328 0H58.9945V35.1296H59.9328V0Z" fill="#D70B5A"/>
<path d="M58.9946 0H58.0563V35.1296H58.9946V0Z" fill="#D60B5A"/>
<path d="M58.0562 0H57.1179V35.1296H58.0562V0Z" fill="#D50B5A"/>
<path d="M57.118 0H56.1797V35.1296H57.118V0Z" fill="#D40B5A"/>
<path d="M56.1796 0H55.2413V35.1296H56.1796V0Z" fill="#D30B5A"/>
<path d="M55.2377 0H54.2994V35.1296H55.2377V0Z" fill="#D20B59"/>
<path d="M54.2994 0H53.3611V35.1296H54.2994V0Z" fill="#D10B59"/>
<path d="M53.3611 0H52.4229V35.1296H53.3611V0Z" fill="#D00B59"/>
<path d="M52.4228 0H51.4845V35.1296H52.4228V0Z" fill="#CF0C59"/>
<path d="M51.4846 0H50.5463V35.1296H51.4846V0Z" fill="#CE0C59"/>
<path d="M50.5461 0H49.6078V35.1296H50.5461V0Z" fill="#CD0C59"/>
<path d="M49.6079 0H48.6696V35.1296H49.6079V0Z" fill="#CC0C58"/>
<path d="M48.6695 0H47.7312V35.1296H48.6695V0Z" fill="#CB0C58"/>
<path d="M47.7313 0H46.793V35.1296H47.7313V0Z" fill="#CA0C58"/>
<path d="M46.7929 0H45.8546V35.1296H46.7929V0Z" fill="#C90C58"/>
<path d="M45.8547 0H44.9164V35.1296H45.8547V0Z" fill="#C80C58"/>
<path d="M44.9163 0H43.978V35.1296H44.9163V0Z" fill="#C70D58"/>
<path d="M43.9744 0H43.0361V35.1296H43.9744V0Z" fill="#C60D57"/>
<path d="M43.0361 0H42.0978V35.1296H43.0361V0Z" fill="#C50D57"/>
<path d="M42.0978 0H41.1595V35.1296H42.0978V0Z" fill="#C40D57"/>
<path d="M41.1595 0H40.2212V35.1296H41.1595V0Z" fill="#C30D57"/>
<path d="M40.2213 0H39.283V35.1296H40.2213V0Z" fill="#C20D57"/>
<path d="M39.2829 0H38.3446V35.1296H39.2829V0Z" fill="#C10D56"/>
<path d="M38.3447 0H37.4064V35.1296H38.3447V0Z" fill="#C00D56"/>
<path d="M37.4063 0H36.468V35.1296H37.4063V0Z" fill="#BF0E56"/>
<path d="M36.4681 0H35.5298V35.1296H36.4681V0Z" fill="#BE0E56"/>
<path d="M35.5297 0H34.5914V35.1296H35.5297V0Z" fill="#BD0E56"/>
<path d="M34.5915 0H33.6532V35.1296H34.5915V0Z" fill="#BC0E56"/>
<path d="M33.6531 0H32.7148V35.1296H33.6531V0Z" fill="#BA0E55"/>
<path d="M32.711 0H31.7727V35.1296H32.711V0Z" fill="#B90E55"/>
<path d="M31.7728 0H30.8345V35.1296H31.7728V0Z" fill="#B80E55"/>
<path d="M30.8344 0H29.8961V35.1296H30.8344V0Z" fill="#B70E55"/>
<path d="M29.8964 0H29.2278V35.1296H29.8964V0Z" fill="#B60F55"/>
</g>
</svg>
