<svg width="180" height="34" viewBox="0 0 180 34" fill="none" xmlns="http://www.w3.org/2000/svg">
<g clip-path="url(#clip0_3_2)">
<path d="M0.353365 32.6876C0.116645 32.4515 0 32.1777 0 31.8629V1.18061C0 0.834984 0.120075 0.550953 0.353365 0.331941C0.590085 0.112928 0.864544 0 1.18017 0H7.80491C8.15141 0 8.43616 0.109506 8.65573 0.331941C8.87529 0.550953 8.98851 0.834984 8.98851 1.18061V25.6313H23.1849C23.5314 25.6313 23.823 25.7476 24.0597 25.9838C24.2964 26.2199 24.4131 26.5108 24.4131 26.8564V31.8594C24.4131 32.2051 24.2964 32.4891 24.0597 32.7081C23.823 32.9271 23.5314 33.0401 23.1849 33.0401H1.1836C0.867974 33.0401 0.593516 32.9237 0.356796 32.6876H0.353365Z" fill="white"/>
<path d="M88.5917 32.6876C88.355 32.4515 88.2383 32.1777 88.2383 31.8629V1.22852C88.2383 0.882893 88.3481 0.592018 88.5711 0.355895C88.7907 0.119772 89.0754 0.00342207 89.4219 0.00342207H95.7619C96.1084 0.00342207 96.3932 0.123194 96.6127 0.355895C96.8323 0.592018 96.9455 0.882893 96.9455 1.22852V11.5187L105.323 0.944491C105.67 0.31483 106.284 0 107.169 0H114.411C114.662 0 114.892 0.102662 115.098 0.307986C115.303 0.51331 115.406 0.742589 115.406 0.9924C115.406 1.24221 115.341 1.43385 115.218 1.56046L104.191 15.8168L116.116 31.4899C116.243 31.6165 116.305 31.8047 116.305 32.0579C116.305 32.3112 116.202 32.537 115.996 32.7423C115.791 32.9477 115.547 33.0503 115.262 33.0503H107.831C107.327 33.0503 106.915 32.9477 106.6 32.7423C106.284 32.537 106.064 32.3248 105.937 32.1058L96.9455 20.5872V31.8697C96.9455 32.1845 96.8357 32.4583 96.6127 32.6944C96.3932 32.9306 96.1084 33.0469 95.7619 33.0469H89.4219C89.1063 33.0469 88.8319 32.9306 88.5951 32.6944L88.5917 32.6876Z" fill="white"/>
<path d="M120.206 32.6876C119.969 32.4515 119.853 32.1777 119.853 31.8629V1.18061C119.853 0.834984 119.973 0.550953 120.206 0.331941C120.443 0.112928 120.717 0 121.033 0H127.657C128.004 0 128.289 0.109506 128.508 0.331941C128.728 0.550953 128.841 0.834984 128.841 1.18061V25.6313H143.037C143.384 25.6313 143.675 25.7476 143.912 25.9838C144.149 26.2199 144.266 26.5108 144.266 26.8564V31.8594C144.266 32.2051 144.149 32.4891 143.912 32.7081C143.675 32.9271 143.384 33.0401 143.037 33.0401H121.033C120.717 33.0401 120.443 32.9237 120.206 32.6876Z" fill="white"/>
<path d="M146.99 32.7355C146.784 32.5302 146.681 32.3043 146.681 32.0511C146.681 31.8629 146.698 31.7191 146.729 31.6267L157.755 1.36883C158.071 0.455135 158.702 0 159.649 0H167.032C167.979 0 168.61 0.455135 168.926 1.36883L179.952 31.6267C179.983 31.7226 180 31.8629 180 32.0511C180 32.3043 179.897 32.5302 179.691 32.7355C179.485 32.9408 179.256 33.0435 179.005 33.0435H172.854C172.096 33.0435 171.56 32.6979 171.245 32.0066L169.54 27.4279H157.141L155.436 32.0066C155.12 32.6979 154.585 33.0435 153.827 33.0435H147.676C147.422 33.0435 147.195 32.9408 146.99 32.7355ZM159.127 20.3442H167.55L163.337 8.30536L159.124 20.3442H159.127Z" fill="white"/>
<path d="M41.0555 0.626236C32.1391 0.626236 24.9105 7.83653 24.9105 16.7305C24.9105 25.6244 32.1391 32.8347 41.0555 32.8347C49.972 32.8347 57.2005 25.6244 57.2005 16.7305C57.2005 7.83653 49.9754 0.626236 41.0555 0.626236ZM50.2224 16.3917C49.8142 17.5005 49.2035 18.4963 48.5036 19.4408C47.5876 20.6727 46.5344 21.778 45.416 22.8252C44.0677 24.0914 42.6302 25.248 41.1482 26.3533L41.1104 26.3807L41.0933 26.391L41.059 26.3636C40.6267 26.0146 40.1978 25.6689 39.769 25.3199C38.4962 24.2796 37.2474 23.205 36.0707 22.0552C35.0106 21.0149 34.0088 19.9199 33.1683 18.6913C32.6331 17.9077 32.1837 17.083 31.8818 16.1795C31.6347 15.4369 31.5044 14.6704 31.5593 13.8867C31.6691 12.4597 32.1802 11.2141 33.2849 10.2594C33.9882 9.65365 34.815 9.31487 35.731 9.17798C36.1599 9.11296 36.5956 9.09585 37.0279 9.12323C38.582 9.22931 39.8102 9.91715 40.6953 11.2004C40.8257 11.3886 40.9389 11.5871 41.059 11.7822L41.1001 11.8506C41.1001 11.8506 41.1036 11.8404 41.107 11.8369C41.1722 11.7206 41.2374 11.6008 41.3094 11.4845C41.8 10.6734 42.4347 10.013 43.2889 9.57494C44.0917 9.16429 44.946 9.03083 45.838 9.10954C46.6167 9.17798 47.3646 9.36277 48.0611 9.72209C49.4471 10.4373 50.2739 11.5734 50.5724 13.0928C50.7919 14.2255 50.617 15.3206 50.2224 16.3883V16.3917Z" fill="white"/>
<path d="M68.2029 0.626236C59.2864 0.626236 52.0579 7.83653 52.0579 16.7305C52.0579 25.6244 59.2864 32.8347 68.2029 32.8347C77.1193 32.8347 84.3479 25.6244 84.3479 16.7305C84.3479 7.83653 77.1193 0.626236 68.2029 0.626236ZM77.3663 16.3917C76.9581 17.5005 76.3474 18.4963 75.6475 19.4408C74.7315 20.6727 73.6783 21.778 72.5599 22.8252C71.2116 24.0914 69.7741 25.248 68.2921 26.3533L68.2543 26.3807L68.2372 26.391L68.2029 26.3636C67.7706 26.0146 67.3418 25.6689 66.9129 25.3199C65.6401 24.2796 64.3913 23.205 63.2146 22.0552C62.1545 21.0149 61.1527 19.9199 60.3122 18.6913C59.777 17.9077 59.3276 17.083 59.0257 16.1795C58.7787 15.4369 58.6483 14.6704 58.7032 13.8867C58.813 12.4597 59.3241 11.2141 60.4288 10.2594C61.1321 9.65365 61.9589 9.31487 62.8749 9.17798C63.3038 9.11296 63.7395 9.09585 64.1718 9.12323C65.7259 9.22931 66.9541 9.91715 67.8392 11.2004C67.9696 11.3886 68.0828 11.5871 68.2029 11.7822L68.244 11.8506C68.244 11.8506 68.2475 11.8404 68.2509 11.8369C68.3161 11.7206 68.3813 11.6008 68.4533 11.4845C68.9439 10.6734 69.5786 10.013 70.4328 9.57494C71.2356 9.16429 72.0899 9.03083 72.9819 9.10954C73.7606 9.17798 74.5085 9.36277 75.205 9.72209C76.591 10.4373 77.4178 11.5734 77.7163 13.0928C77.9358 14.2255 77.7609 15.3206 77.3663 16.3883V16.3917Z" fill="white"/>
</g>
<defs>
<clipPath id="clip0_3_2">
<rect width="180" height="33.0435" fill="white"/>
</clipPath>
</defs>
</svg>
